<svg width="16" height="18" viewBox="0 0 16 18" fill="none" xmlns="http://www.w3.org/2000/svg">
<path d="M15.6604 4.72979C15.6604 4.72979 15.6562 4.72005 15.6534 4.71448C15.6507 4.70892 15.6465 4.70613 15.6437 4.70196C15.4196 4.31922 15.0981 3.99354 14.7029 3.76529L9.29854 0.644895C8.49826 0.182821 7.50452 0.182821 6.70424 0.644895L1.29854 3.76529C0.903271 3.99354 0.581768 4.31922 0.35769 4.70196C0.354906 4.70613 0.350731 4.71031 0.347947 4.71448C0.345164 4.71866 0.343772 4.72423 0.340988 4.7284C0.121086 5.11393 0 5.55513 0 6.01163V12.2524C0 13.1766 0.496869 14.0381 1.29715 14.5002L6.70285 17.6205C7.09812 17.8488 7.54071 17.9643 7.9833 17.9671C7.98886 17.9671 7.99443 17.9685 8 17.9685C8.00557 17.9685 8.01113 17.9671 8.0167 17.9671C8.45929 17.9643 8.90188 17.8488 9.29715 17.6205L14.7029 14.5002C15.5031 14.0381 16 13.1766 16 12.2524V6.01163C16 5.55513 15.8789 5.11393 15.659 4.7284L15.6604 4.72979ZM7.40014 1.85018C7.58525 1.74302 7.79401 1.69013 8.00139 1.69013C8.20877 1.69013 8.41754 1.74302 8.60264 1.85018L13.9137 4.91629L8.00139 8.33035L2.08907 4.91629L7.40014 1.85018ZM1.99443 13.2963C1.62283 13.0819 1.39318 12.6825 1.39318 12.2538V6.12158L7.3055 9.53564V16.3624L1.99443 13.2963ZM14.007 13.2963L8.69589 16.3624V9.53564L14.6082 6.12158V12.2538C14.6082 12.6825 14.3772 13.0819 14.007 13.2963Z" fill="#636A79"/>
</svg>
